<mxfile host="65bd71144e">
    <diagram id="zRCiL9ZMk7N_7-01TlMQ" name="PÃ¡gina-1">
        <mxGraphModel dx="1031" dy="533" grid="1" gridSize="10" guides="1" tooltips="1" connect="1" arrows="1" fold="1" page="1" pageScale="1" pageWidth="827" pageHeight="1169" math="0" shadow="0">
            <root>
                <mxCell id="0"/>
                <mxCell id="1" parent="0"/>
                <mxCell id="70" value="" style="rounded=0;whiteSpace=wrap;html=1;rotation=90;" parent="1" vertex="1">
                    <mxGeometry x="322.15" y="-61.64" width="395.91" height="1030.16" as="geometry"/>
                </mxCell>
                <mxCell id="3" value="Alunos / Professores" style="shape=umlActor;verticalLabelPosition=bottom;verticalAlign=top;html=1;outlineConnect=0;" parent="1" vertex="1">
                    <mxGeometry x="50" y="410" width="30" height="60" as="geometry"/>
                </mxCell>
                <mxCell id="13" value="Excluir Projetos" style="ellipse;whiteSpace=wrap;html=1;" parent="1" vertex="1">
                    <mxGeometry x="556.7299999999999" y="440" width="120" height="40" as="geometry"/>
                </mxCell>
                <mxCell id="14" value="Editar Projetos" style="ellipse;whiteSpace=wrap;html=1;" parent="1" vertex="1">
                    <mxGeometry x="558.29" y="380" width="120" height="45" as="geometry"/>
                </mxCell>
                <mxCell id="15" value="Criar Projetos" style="ellipse;whiteSpace=wrap;html=1;" parent="1" vertex="1">
                    <mxGeometry x="555.17" y="322.5" width="120" height="45" as="geometry"/>
                </mxCell>
                <mxCell id="22" value="Publicar Projetos" style="ellipse;whiteSpace=wrap;html=1;" parent="1" vertex="1">
                    <mxGeometry x="556.42" y="545" width="120.62" height="40" as="geometry"/>
                </mxCell>
                <mxCell id="31" value="" style="endArrow=none;html=1;exitX=1;exitY=0.3333333333333333;exitDx=0;exitDy=0;exitPerimeter=0;entryX=0;entryY=0.5;entryDx=0;entryDy=0;" parent="1" source="3" target="32" edge="1">
                    <mxGeometry width="50" height="50" relative="1" as="geometry">
                        <mxPoint x="180" y="360" as="sourcePoint"/>
                        <mxPoint x="230" y="310" as="targetPoint"/>
                    </mxGeometry>
                </mxCell>
                <mxCell id="32" value="Fazer Login" style="ellipse;whiteSpace=wrap;html=1;" parent="1" vertex="1">
                    <mxGeometry x="140" y="400" width="130" height="60" as="geometry"/>
                </mxCell>
                <mxCell id="38" value="Recuperar Acesso" style="ellipse;whiteSpace=wrap;html=1;" parent="1" vertex="1">
                    <mxGeometry x="278.17" y="270" width="123.12" height="40" as="geometry"/>
                </mxCell>
                <mxCell id="48" value="Administrador" style="shape=umlActor;verticalLabelPosition=bottom;verticalAlign=top;html=1;outlineConnect=0;" parent="1" vertex="1">
                    <mxGeometry x="980" y="430" width="30" height="60" as="geometry"/>
                </mxCell>
                <mxCell id="49" value="Validar Projetos" style="ellipse;whiteSpace=wrap;html=1;" parent="1" vertex="1">
                    <mxGeometry x="790" y="320" width="120" height="50" as="geometry"/>
                </mxCell>
                <mxCell id="52" value="" style="endArrow=none;html=1;exitX=1;exitY=0.5;exitDx=0;exitDy=0;entryX=0;entryY=0.3333333333333333;entryDx=0;entryDy=0;entryPerimeter=0;" parent="1" source="49" target="48" edge="1">
                    <mxGeometry width="50" height="50" relative="1" as="geometry">
                        <mxPoint x="420" y="490" as="sourcePoint"/>
                        <mxPoint x="470" y="440" as="targetPoint"/>
                    </mxGeometry>
                </mxCell>
                <mxCell id="53" value="" style="endArrow=none;html=1;exitX=1;exitY=0.5;exitDx=0;exitDy=0;entryX=0;entryY=0.3333333333333333;entryDx=0;entryDy=0;entryPerimeter=0;" parent="1" source="13" target="48" edge="1">
                    <mxGeometry width="50" height="50" relative="1" as="geometry">
                        <mxPoint x="420" y="490" as="sourcePoint"/>
                        <mxPoint x="470" y="440" as="targetPoint"/>
                    </mxGeometry>
                </mxCell>
                <mxCell id="55" value="" style="endArrow=none;html=1;entryX=0;entryY=0.3333333333333333;entryDx=0;entryDy=0;entryPerimeter=0;exitX=1;exitY=0.5;exitDx=0;exitDy=0;" parent="1" source="22" target="48" edge="1">
                    <mxGeometry width="50" height="50" relative="1" as="geometry">
                        <mxPoint x="420" y="490" as="sourcePoint"/>
                        <mxPoint x="470" y="440" as="targetPoint"/>
                    </mxGeometry>
                </mxCell>
                <mxCell id="56" value="Visualizar Projetos" style="ellipse;whiteSpace=wrap;html=1;" parent="1" vertex="1">
                    <mxGeometry x="553.12" y="490" width="125.17" height="45" as="geometry"/>
                </mxCell>
                <mxCell id="62" value="" style="endArrow=none;html=1;entryX=0;entryY=0.3333333333333333;entryDx=0;entryDy=0;entryPerimeter=0;exitX=1;exitY=0.5;exitDx=0;exitDy=0;" parent="1" source="14" target="48" edge="1">
                    <mxGeometry width="50" height="50" relative="1" as="geometry">
                        <mxPoint x="390" y="440" as="sourcePoint"/>
                        <mxPoint x="440" y="390" as="targetPoint"/>
                    </mxGeometry>
                </mxCell>
                <mxCell id="64" value="Comentar Projetos" style="ellipse;whiteSpace=wrap;html=1;" parent="1" vertex="1">
                    <mxGeometry x="554.15" y="270" width="123.12" height="40" as="geometry"/>
                </mxCell>
                <mxCell id="66" value="Curtir Projetos" style="ellipse;whiteSpace=wrap;html=1;" parent="1" vertex="1">
                    <mxGeometry x="555.2900000000001" y="600" width="123" height="40" as="geometry"/>
                </mxCell>
                <mxCell id="72" value="Projetos" style="ellipse;whiteSpace=wrap;html=1;" vertex="1" parent="1">
                    <mxGeometry x="360" y="407.5" width="100" height="45" as="geometry"/>
                </mxCell>
                <mxCell id="82" value="" style="endArrow=none;html=1;exitX=1;exitY=0;exitDx=0;exitDy=0;entryX=0;entryY=0.5;entryDx=0;entryDy=0;" edge="1" parent="1" source="72" target="15">
                    <mxGeometry width="50" height="50" relative="1" as="geometry">
                        <mxPoint x="490" y="490" as="sourcePoint"/>
                        <mxPoint x="540" y="440" as="targetPoint"/>
                    </mxGeometry>
                </mxCell>
                <mxCell id="83" value="" style="endArrow=none;html=1;exitX=1;exitY=0.5;exitDx=0;exitDy=0;entryX=0;entryY=0.5;entryDx=0;entryDy=0;" edge="1" parent="1" source="32" target="72">
                    <mxGeometry width="50" height="50" relative="1" as="geometry">
                        <mxPoint x="455.75033345065276" y="424.2698532817127" as="sourcePoint"/>
                        <mxPoint x="565.1700000000001" y="355" as="targetPoint"/>
                    </mxGeometry>
                </mxCell>
                <mxCell id="84" value="" style="endArrow=none;html=1;exitX=0.5;exitY=0;exitDx=0;exitDy=0;entryX=0;entryY=0.5;entryDx=0;entryDy=0;" edge="1" parent="1" source="32" target="38">
                    <mxGeometry width="50" height="50" relative="1" as="geometry">
                        <mxPoint x="465.75033345065276" y="434.2698532817127" as="sourcePoint"/>
                        <mxPoint x="575.1700000000001" y="365" as="targetPoint"/>
                    </mxGeometry>
                </mxCell>
                <mxCell id="85" value="" style="endArrow=none;html=1;exitX=0.5;exitY=0;exitDx=0;exitDy=0;entryX=0;entryY=0.5;entryDx=0;entryDy=0;" edge="1" parent="1" source="72" target="64">
                    <mxGeometry width="50" height="50" relative="1" as="geometry">
                        <mxPoint x="475.75033345065276" y="444.2698532817127" as="sourcePoint"/>
                        <mxPoint x="585.1700000000001" y="375" as="targetPoint"/>
                    </mxGeometry>
                </mxCell>
                <mxCell id="86" value="" style="endArrow=none;html=1;exitX=0.5;exitY=1;exitDx=0;exitDy=0;entryX=0;entryY=0.5;entryDx=0;entryDy=0;" edge="1" parent="1" source="72" target="66">
                    <mxGeometry width="50" height="50" relative="1" as="geometry">
                        <mxPoint x="485.75033345065276" y="454.2698532817127" as="sourcePoint"/>
                        <mxPoint x="595.1700000000001" y="385" as="targetPoint"/>
                    </mxGeometry>
                </mxCell>
                <mxCell id="87" value="" style="endArrow=none;html=1;exitX=1;exitY=1;exitDx=0;exitDy=0;entryX=0;entryY=0.5;entryDx=0;entryDy=0;" edge="1" parent="1" source="72" target="56">
                    <mxGeometry width="50" height="50" relative="1" as="geometry">
                        <mxPoint x="495.75033345065276" y="464.2698532817127" as="sourcePoint"/>
                        <mxPoint x="605.1700000000001" y="395" as="targetPoint"/>
                    </mxGeometry>
                </mxCell>
                <mxCell id="88" value="" style="endArrow=none;html=1;exitX=1;exitY=0.5;exitDx=0;exitDy=0;entryX=0;entryY=0.5;entryDx=0;entryDy=0;" edge="1" parent="1" source="15" target="49">
                    <mxGeometry width="50" height="50" relative="1" as="geometry">
                        <mxPoint x="505.75033345065276" y="474.2698532817127" as="sourcePoint"/>
                        <mxPoint x="615.1700000000001" y="405" as="targetPoint"/>
                    </mxGeometry>
                </mxCell>
            </root>
        </mxGraphModel>
    </diagram>
</mxfile>